<mxfile host="65bd71144e">
    <diagram id="lut3Ta-v0c976ASl9qIL" name="ページ1">
        <mxGraphModel dx="1105" dy="532" grid="1" gridSize="10" guides="1" tooltips="1" connect="1" arrows="1" fold="1" page="1" pageScale="1" pageWidth="827" pageHeight="1169" math="0" shadow="0">
            <root>
                <mxCell id="0"/>
                <mxCell id="1" parent="0"/>
                <mxCell id="rlpLy5eyP_Tx5Tw7G8M6-1" value="" style="rounded=0;whiteSpace=wrap;html=1;" parent="1" vertex="1">
                    <mxGeometry x="240" y="60" width="280" height="350" as="geometry"/>
                </mxCell>
                <mxCell id="rlpLy5eyP_Tx5Tw7G8M6-4" value="main" style="text;html=1;strokeColor=none;fillColor=none;align=center;verticalAlign=middle;whiteSpace=wrap;rounded=0;" parent="1" vertex="1">
                    <mxGeometry x="460" y="420" width="60" height="30" as="geometry"/>
                </mxCell>
                <mxCell id="rlpLy5eyP_Tx5Tw7G8M6-5" value="" style="aspect=fixed;html=1;points=[];align=center;image;fontSize=12;image=img/lib/azure2/networking/Virtual_Networks.svg;" parent="1" vertex="1">
                    <mxGeometry x="430" y="425" width="33.5" height="20" as="geometry"/>
                </mxCell>
                <mxCell id="rlpLy5eyP_Tx5Tw7G8M6-9" value="" style="rounded=0;whiteSpace=wrap;html=1;dashed=1;" parent="1" vertex="1">
                    <mxGeometry x="360" y="190" width="40" height="40" as="geometry"/>
                </mxCell>
                <mxCell id="rlpLy5eyP_Tx5Tw7G8M6-10" value="main-subnet" style="text;html=1;strokeColor=none;fillColor=none;align=center;verticalAlign=middle;whiteSpace=wrap;rounded=0;" parent="1" vertex="1">
                    <mxGeometry x="335" y="230" width="90" height="30" as="geometry"/>
                </mxCell>
                <mxCell id="rlpLy5eyP_Tx5Tw7G8M6-13" value="172.16.0.0/24" style="text;html=1;strokeColor=none;fillColor=none;align=center;verticalAlign=middle;whiteSpace=wrap;rounded=0;" parent="1" vertex="1">
                    <mxGeometry x="335" y="260" width="90" height="30" as="geometry"/>
                </mxCell>
                <mxCell id="rlpLy5eyP_Tx5Tw7G8M6-17" value="172.16.0.0/20" style="text;html=1;strokeColor=none;fillColor=none;align=center;verticalAlign=middle;whiteSpace=wrap;rounded=0;" parent="1" vertex="1">
                    <mxGeometry x="460" y="445" width="60" height="30" as="geometry"/>
                </mxCell>
                <mxCell id="rlpLy5eyP_Tx5Tw7G8M6-23" value="" style="aspect=fixed;html=1;points=[];align=center;image;fontSize=12;image=img/lib/azure2/networking/Network_Security_Groups.svg;dashed=1;" parent="1" vertex="1">
                    <mxGeometry x="383.53" y="190" width="16.47" height="20" as="geometry"/>
                </mxCell>
            </root>
        </mxGraphModel>
    </diagram>
</mxfile>